<svg width="24" height="24" fill="none" xmlns="http://www.w3.org/2000/svg"><path d="M17.85 4.992a.919.919 0 00-1.281.206.91.91 0 00.207 1.275 8.057 8.057 0 012.51 10.22 8.092 8.092 0 01-4.723 4.066 8.138 8.138 0 01-6.228-.448 8.086 8.086 0 01-4.086-4.699 8.032 8.032 0 01.452-6.199 8.172 8.172 0 016.084-4.39c.018-.003.033-.01.05-.013l.038 1.804a.497.497 0 00.855.332l2.61-2.712a.493.493 0 00-.014-.699L11.6 1.137a.495.495 0 00-.84.368l.036 1.718a.922.922 0 00-.285-.006A10.01 10.01 0 003.06 8.595c-2.471 4.903-.472 10.891 4.453 13.35A9.968 9.968 0 0011.977 23c3.665 0 7.198-2.01 8.95-5.487A9.87 9.87 0 0017.85 4.992z" fill="#14BAD8"/></svg>