<svg width="368" height="228" fill="none" xmlns="http://www.w3.org/2000/svg"><path d="M69.272 3.065l-31.95 153.703h24.98v-55.759h33.547v55.759h14.522v33.427H95.849v34.886H62.3v-34.886H0v-23.647L33.983 3.065h35.29zm63.899 58.971c0-8.466.63-16.446 1.888-23.939 1.356-7.59 3.873-14.207 7.552-19.851 3.679-5.644 8.859-10.072 15.539-13.283C164.927 1.654 173.689 0 184.436 0c10.843 0 19.605 1.654 26.285 4.963 6.778 3.308 12.006 7.785 15.685 13.429 3.776 5.644 6.293 12.212 7.551 19.705 1.259 7.493 1.888 15.424 1.888 23.793v104.074c0 8.466-.677 16.494-2.033 24.085-1.258 7.493-3.776 14.061-7.552 19.705-3.679 5.644-8.858 10.121-15.539 13.429-6.68 3.211-15.442 4.817-26.285 4.817-10.941 0-19.751-1.654-26.431-4.963-6.681-3.308-11.86-7.785-15.539-13.429-3.679-5.644-6.148-12.212-7.407-19.705-1.258-7.493-1.888-15.424-1.888-23.793V62.036zm51.265 132.392c4.066 0 7.261-.779 9.585-2.336 2.323-1.557 4.017-3.649 5.082-6.276 1.065-2.628 1.695-5.644 1.888-9.05.291-3.504.436-7.104.436-10.802V62.036c0-3.6-.097-7.104-.29-10.51-.194-3.503-.823-6.568-1.888-9.196-1.065-2.724-2.76-4.865-5.083-6.422-2.324-1.654-5.567-2.482-9.73-2.482-4.067 0-7.262.779-9.585 2.336-2.227 1.557-3.873 3.649-4.938 6.276-1.065 2.628-1.743 5.693-2.033 9.196-.194 3.406-.29 7.007-.29 10.802v103.928c0 3.601.096 7.104.29 10.51.194 3.406.823 6.471 1.888 9.196 1.065 2.627 2.711 4.768 4.938 6.422 2.323 1.557 5.567 2.336 9.73 2.336zM326.901 3.065l-31.949 153.703h24.979v-55.759h33.546v55.759H368v33.427h-14.523v34.886h-33.546v-34.886h-62.302v-23.647L291.612 3.065h35.289z" fill="#0E3F96"/><path fill-rule="evenodd" clip-rule="evenodd" d="M133.171 62.036c0-8.466.63-16.446 1.888-23.939 1.356-7.59 3.873-14.207 7.552-19.851 3.679-5.644 8.859-10.072 15.539-13.283C164.927 1.654 173.689 0 184.436 0c10.843 0 19.605 1.654 26.286 4.963 6.777 3.308 12.005 7.785 15.684 13.429 3.776 5.644 6.293 12.212 7.552 19.705 1.258 7.493 1.887 15.424 1.887 23.793v93.628c-9.603 5.183-20.532 9.338-34.42 11.247l.002-.801V62.036c0-3.6-.097-7.104-.29-10.51-.194-3.503-.823-6.568-1.888-9.196-1.065-2.724-2.76-4.865-5.083-6.422-2.324-1.654-5.567-2.482-9.73-2.482-4.066 0-7.261.779-9.585 2.336-2.227 1.557-3.873 3.649-4.938 6.276-1.065 2.628-1.742 5.693-2.033 9.196a191.29 191.29 0 00-.29 10.802v103.928c0 .299 0 .596.002.893-14.98-2.046-25.426-6.915-34.421-12.914V62.036zm-37.322 64.93v-25.957H62.302v15.033c14.103 2.252 24.746 6.19 33.547 10.924zm-49.706-12.63l23.13-111.27h-35.29L10.648 115.323C17.639 114.471 25.375 114 34 114c4.272 0 8.313.115 12.143.336zm307.335.984v-14.311h-33.547v13.678C324.324 114.24 329 114 334 114c6.999 0 13.462.469 19.478 1.32zm-50.402 2.364L326.901 3.065h-35.289l-27.86 134.029c11.232-7.81 23.137-15.18 39.324-19.41z" fill="#0E3F96"/></svg>