<svg width="92" height="92" fill="none" xmlns="http://www.w3.org/2000/svg"><path d="M46.046 7.682C24.883 7.669 7.717 24.814 7.705 45.977 7.692 67.14 24.837 84.306 46 84.318a38.223 38.223 0 0027.107-11.211A38.318 38.318 0 0084.34 46.023C84.354 24.86 67.21 7.694 46.046 7.682zm.001 72.803c-19.046.013-34.495-15.416-34.509-34.462C11.525 26.978 26.955 11.528 46 11.515a34.393 34.393 0 0124.396 10.089 34.485 34.485 0 0110.112 24.373c.014 19.045-15.415 34.495-34.46 34.508zM48.71 46l12.196-12.196a1.916 1.916 0 00-2.71-2.71L46 43.29 33.804 31.094a1.917 1.917 0 00-2.71 2.71L43.29 46 31.093 58.196a1.917 1.917 0 002.71 2.71L46 48.71l12.196 12.197a1.917 1.917 0 002.71-2.71L48.71 46z" fill="#D9DAE0"/></svg>