<svg width="468" height="280" fill="none" xmlns="http://www.w3.org/2000/svg"><rect width="468" height="280" rx="16" fill="#0E3F96"/><path d="M197.447 91.177a20.245 20.245 0 0126.932 16.92 20.24 20.24 0 01-2.329 11.784l61.936 61.941-8.178 8.178-61.941-61.941a20.258 20.258 0 01-22.798-2.452 20.256 20.256 0 01-5.9-22.157l12.938 12.938a8.68 8.68 0 009.525 2.002 8.66 8.66 0 002.849-1.895 8.66 8.66 0 002.541-6.21 8.686 8.686 0 00-2.648-6.164l-12.932-12.95.005.006zm59.958 10.896l18.403-10.225 8.178 8.178-10.225 18.403-10.226 2.048-12.261 12.266-8.183-8.178 12.267-12.266 2.047-10.226zm-38.854 47.032l8.178 8.178-30.67 30.67a5.784 5.784 0 01-8.629-7.675l.452-.503 30.669-30.67z" fill="#fff"/></svg>