<svg width="100" height="100" fill="none" xmlns="http://www.w3.org/2000/svg"><path d="M35.478 67l3.216-7.213h18.395L60.41 67H68L49.763 27 32 67h3.478zM47.76 39.295l8.117 17.76h-15.97l7.853-17.76z" fill="#46CBE3"/><path d="M50 2c0-1.105.896-2.004 2-1.96a50 50 0 11-48.897 67.3c-.383-1.036.196-2.166 1.246-2.507 1.05-.341 2.175.235 2.562 1.27a46 46 0 1045.088-62.06C50.896 3.995 50 3.105 50 2z" fill="url(#paint0_linear_230_2575)"/><defs><linearGradient id="paint0_linear_230_2575" x1="54" y1="-4.5" x2="-13" y2="75.5" gradientUnits="userSpaceOnUse"><stop stop-color="#46CBE3"/><stop offset="1" stop-color="#46CBE3" stop-opacity="0"/></linearGradient></defs></svg>