<svg width="160" height="20" fill="none" xmlns="http://www.w3.org/2000/svg"><path d="M88.102.394h-8.701v.21l.55.157c.013 0 .026 0 .04.005.012 0 .026.008.039.021.336.101.629.263.887.486.253.227.454.494.598.805.144.306.214.638.219.993v16.532h6.368c.035.004.21.004.524 0 .315-.004.726-.035 1.237-.087a13.519 13.519 0 001.703-.302 12.185 12.185 0 001.931-.643 9.418 9.418 0 001.922-1.116 7.896 7.896 0 001.673-1.714c.494-.682.887-1.5 1.18-2.445.288-.944.44-2.046.445-3.297-.004-1.278-.153-2.393-.445-3.35-.289-.958-.677-1.78-1.171-2.467a7.869 7.869 0 00-1.664-1.715 9.328 9.328 0 00-1.918-1.098 11.75 11.75 0 00-1.93-.625 13.72 13.72 0 00-1.704-.276A14.01 14.01 0 0088.64.394h-.537zm0 17.634h-2.961V1.968h2.961c.01-.004.127.005.367.022.236.022.55.075.944.167.388.087.821.236 1.288.441.468.21.94.499 1.407.866.467.372.9.849 1.288 1.43.394.582.708 1.29.944 2.13.24.84.363 1.833.367 2.975-.004 1.154-.127 2.151-.367 2.995-.236.85-.55 1.562-.944 2.144a6.115 6.115 0 01-1.288 1.425c-.467.368-.94.657-1.407.858-.467.205-.9.35-1.288.433a6.94 6.94 0 01-.944.157 3.28 3.28 0 01-.367.018zM110.722 0c-1.027 0-2.001.131-2.927.394a8.58 8.58 0 00-2.538 1.18 7.999 7.999 0 00-2.001 1.986c-.568.796-1.004 1.728-1.314 2.795-.311 1.067-.468 2.274-.472 3.617.004 1.391.161 2.624.472 3.71.31 1.084.746 2.024 1.314 2.816a7.657 7.657 0 002.001 1.955 8.493 8.493 0 002.538 1.146c.926.249 1.9.371 2.927.371 1.026 0 2-.122 2.926-.371a8.51 8.51 0 002.538-1.146 7.73 7.73 0 002.005-1.955c.564-.792 1.001-1.732 1.311-2.817.31-1.085.467-2.318.472-3.709-.005-1.356-.162-2.567-.472-3.639-.31-1.071-.747-2.003-1.311-2.794a7.897 7.897 0 00-2.005-1.977 8.67 8.67 0 00-2.538-1.177c-.926-.258-1.9-.385-2.926-.385zm0 18.684c-.844.005-1.608-.153-2.294-.468-.686-.314-1.275-.818-1.769-1.504-.493-.691-.873-1.588-1.14-2.699-.266-1.11-.402-2.458-.406-4.041.009-2.042.244-3.7.707-4.973.468-1.277 1.119-2.213 1.958-2.808.838-.594 1.817-.888 2.944-.879.847-.004 1.616.158 2.306.486.69.328 1.284.835 1.778 1.53.498.696.878 1.593 1.144 2.69.271 1.098.407 2.415.407 3.954 0 1.583-.136 2.93-.407 4.041-.266 1.111-.646 2.008-1.144 2.699-.494.686-1.088 1.19-1.778 1.505-.69.315-1.459.472-2.306.467zM131.585 0c-1.027 0-2.001.131-2.927.394a8.59 8.59 0 00-2.538 1.18 7.979 7.979 0 00-2 1.986c-.568.796-1.005 1.728-1.315 2.795-.311 1.067-.468 2.274-.472 3.617.004 1.391.162 2.624.472 3.71.31 1.084.747 2.024 1.315 2.816a7.638 7.638 0 002 1.955 8.493 8.493 0 002.538 1.146c.926.249 1.9.371 2.927.371 1.026 0 2.001-.122 2.927-.371a8.504 8.504 0 002.538-1.146 7.745 7.745 0 002.005-1.955c.563-.792 1-1.732 1.31-2.817.31-1.085.467-2.318.472-3.709-.005-1.356-.162-2.567-.472-3.639-.31-1.071-.747-2.003-1.31-2.794a7.914 7.914 0 00-2.005-1.977 8.693 8.693 0 00-2.538-1.177A10.855 10.855 0 00131.585 0zm0 18.684c-.843.005-1.608-.153-2.293-.468-.686-.314-1.276-.818-1.77-1.504-.493-.691-.873-1.588-1.14-2.699-.266-1.11-.402-2.458-.406-4.041.009-2.042.245-3.7.708-4.973.467-1.277 1.118-2.213 1.957-2.808.838-.594 1.817-.888 2.944-.879.847-.004 1.616.158 2.306.486.69.328 1.285.835 1.778 1.53.498.696.878 1.593 1.145 2.69.27 1.098.406 2.415.406 3.954 0 1.583-.136 2.93-.406 4.041-.267 1.111-.647 2.008-1.145 2.699-.493.686-1.088 1.19-1.778 1.505-.69.315-1.459.472-2.306.467zm22.623-7.111l-3.093-.551a9.34 9.34 0 001.215-.11c.371-.057.681-.118.921-.175a5.66 5.66 0 00.407-.109 6.614 6.614 0 001.45-.59c.45-.25.847-.569 1.192-.954.341-.385.612-.848.809-1.395.192-.542.292-1.185.297-1.916-.005-.888-.153-1.64-.446-2.256a4.124 4.124 0 00-1.18-1.518 5.676 5.676 0 00-1.668-.923A9.913 9.913 0 00152.181.6a18.099 18.099 0 00-1.953-.18 40.814 40.814 0 00-1.734-.025h-5.661V.63l.55.131c.014 0 .027 0 .04.004.013 0 .026.009.039.022.336.1.629.263.887.486.253.227.454.494.598.8.145.31.214.643.219.997v16.533h3.407v-8.476h1.468l6.08 8.476H160l-5.792-8.03zm-3.853-1.811h-1.782v-8.03l1.782-.026a4.291 4.291 0 01.953.144c.275.07.572.188.882.354.31.167.607.398.882.696.28.297.507.682.682 1.15.174.468.266 1.045.271 1.723-.005.678-.07 1.251-.201 1.715-.127.468-.306.844-.525 1.137a2.45 2.45 0 01-.742.665l-.052.026a3.19 3.19 0 01-.782.315c-.267.061-.52.1-.756.114-.24.013-.441.022-.612.017zM1.73 19.603l1.599-3.464h9.146l1.652 3.464H17.9L8.832.393 0 19.604h1.73zM7.837 6.298l4.036 8.529H3.93l3.906-8.529zM56.09.394V13.41c-.004.739-.114 1.386-.328 1.933a4.247 4.247 0 01-.847 1.39 4.966 4.966 0 01-1.175.937 6.66 6.66 0 01-1.302.56 7.353 7.353 0 01-1.232.275c-.38.053-.703.08-.96.075-.01.004-.123 0-.342-.013a5.78 5.78 0 01-.856-.15 4.822 4.822 0 01-1.11-.432 4.086 4.086 0 01-1.109-.88c-.35-.375-.633-.87-.856-1.473-.218-.604-.332-1.343-.34-2.222V.394h-5.74V.63l.55.131c.013 0 .026 0 .039.005.013 0 .026.008.04.022.345.1.642.262.895.485.253.228.454.494.594.8.14.311.214.643.214.998V13.41c.004.866.118 1.627.332 2.278.218.652.511 1.217.882 1.684.367.468.782.862 1.24 1.177.46.315.936.569 1.425.761.49.193.965.337 1.424.437a11.242 11.242 0 002.123.25c.214.004.328.004.332 0 1.04-.004 1.944-.105 2.721-.302.773-.197 1.437-.463 1.988-.796.55-.337 1.009-.708 1.371-1.124a5.66 5.66 0 00.87-1.277c.218-.437.375-.862.48-1.264.105-.407.175-.77.205-1.09.035-.314.048-.559.044-.734V.394H56.09zm4.937 19.209l1.599-3.464h9.147l1.651 3.464h3.774L68.13.393l-8.833 19.21h1.73zm6.107-13.305l4.036 8.529h-7.94l3.905-8.529zM28.182 0c-1.026 0-2 .131-2.927.394a8.584 8.584 0 00-2.538 1.18 7.994 7.994 0 00-2 1.986c-.568.796-1.005 1.728-1.315 2.795-.31 1.067-.468 2.274-.472 3.617.005 1.391.162 2.624.472 3.71.31 1.084.747 2.024 1.315 2.816a7.652 7.652 0 002 1.955 8.495 8.495 0 002.538 1.146c.927.249 1.9.371 2.927.371 1.027 0 2-.122 2.927-.371a8.497 8.497 0 002.647-1.22c.194.269.408.51.643.725.306.279.651.497 1.034.655.383.158.81.215 1.28.172.99-.092 2.321-.838 2.944-2.329-.498.31-.956.484-1.374.523-.313.029-.63-.03-.95-.176a4.332 4.332 0 01-.922-.573 5.266 5.266 0 01-.797-.796l-.011-.014.049-.068c.563-.792 1-1.732 1.31-2.817.31-1.084.468-2.318.472-3.709-.004-1.356-.161-2.567-.471-3.639-.31-1.071-.748-2.003-1.311-2.794a7.9 7.9 0 00-2.005-1.977A8.683 8.683 0 0031.11.385 10.861 10.861 0 0028.182 0zm0 18.684c-.843.005-1.607-.153-2.293-.468-.686-.314-1.276-.818-1.77-1.504-.493-.691-.873-1.588-1.14-2.699-.266-1.11-.401-2.458-.406-4.041.009-2.042.245-3.7.708-4.973.467-1.277 1.118-2.213 1.957-2.808.838-.594 1.817-.888 2.944-.879.848-.004 1.616.158 2.307.486.69.328 1.284.835 1.777 1.53.498.696.878 1.593 1.145 2.69.27 1.098.406 2.415.406 3.954 0 1.583-.135 2.93-.406 4.041-.267 1.111-.647 2.008-1.145 2.699-.493.686-1.087 1.19-1.777 1.505-.69.315-1.46.472-2.307.467z" fill="#fff"/></svg>