<svg width="194" height="25" fill="none" xmlns="http://www.w3.org/2000/svg"><path d="M106.79.477H96.243V.73l.667.19c.016 0 .032 0 .047.006.016 0 .033.01.048.026a2.88 2.88 0 011.075.588c.307.275.55.598.726.974.175.37.26.773.264 1.202V23.73h7.72c.043.006.254.006.636 0a17.98 17.98 0 001.498-.105 16.458 16.458 0 002.065-.366c.757-.18 1.541-.44 2.34-.778a11.423 11.423 0 002.33-1.35 9.575 9.575 0 002.028-2.076c.598-.826 1.075-1.816 1.429-2.96.35-1.143.535-2.477.541-3.992-.006-1.546-.186-2.896-.541-4.055-.349-1.16-.82-2.155-1.418-2.987a9.536 9.536 0 00-2.018-2.075 11.325 11.325 0 00-2.324-1.33A14.245 14.245 0 00111.015.9a16.645 16.645 0 00-2.064-.333c-.62-.058-1.123-.09-1.509-.09h-.652zm0 21.348h-3.59V2.383h3.59a5.15 5.15 0 01.445.027c.286.026.667.09 1.144.2a8.67 8.67 0 011.561.535 8.215 8.215 0 011.705 1.049 7.534 7.534 0 011.562 1.731c.477.704.858 1.562 1.144 2.579.291 1.016.439 2.219.445 3.6-.006 1.398-.154 2.605-.445 3.627-.286 1.028-.667 1.89-1.144 2.595-.471.704-.995 1.281-1.562 1.726a7.722 7.722 0 01-1.705 1.038 8.188 8.188 0 01-1.561.524 8.51 8.51 0 01-1.144.19c-.291.022-.434.027-.445.022zM134.207 0c-1.244 0-2.424.159-3.547.477a10.408 10.408 0 00-3.076 1.43 9.68 9.68 0 00-2.425 2.403c-.689.964-1.218 2.092-1.594 3.383-.376 1.292-.566 2.754-.572 4.38.006 1.683.196 3.176.572 4.49.376 1.312.905 2.45 1.594 3.409a9.267 9.267 0 002.425 2.367 10.305 10.305 0 003.076 1.387 13.59 13.59 0 003.547.45c1.245 0 2.425-.148 3.548-.45a10.294 10.294 0 003.076-1.387 9.377 9.377 0 002.431-2.367c.683-.958 1.212-2.097 1.588-3.41.376-1.313.567-2.806.572-4.49-.005-1.641-.196-3.108-.572-4.405-.376-1.297-.905-2.425-1.588-3.383a9.58 9.58 0 00-2.431-2.394 10.52 10.52 0 00-3.076-1.424A13.164 13.164 0 00134.207 0zm0 22.62c-1.021.005-1.948-.186-2.779-.567-.832-.381-1.546-.99-2.145-1.822-.598-.836-1.058-1.922-1.382-3.267-.323-1.344-.487-2.975-.492-4.892.011-2.473.296-4.48.858-6.02.566-1.546 1.355-2.68 2.372-3.4 1.016-.72 2.202-1.074 3.568-1.063 1.028-.006 1.96.19 2.796.587.837.397 1.557 1.012 2.155 1.853.604.842 1.064 1.928 1.387 3.256.329 1.33.493 2.923.493 4.787 0 1.917-.164 3.548-.493 4.893-.323 1.344-.783 2.43-1.387 3.266-.598.832-1.318 1.44-2.155 1.822-.836.381-1.768.572-2.796.566zM159.496 0c-1.244 0-2.425.159-3.547.477a10.402 10.402 0 00-3.077 1.43 9.68 9.68 0 00-2.425 2.403c-.688.964-1.217 2.092-1.593 3.383-.377 1.292-.567 2.754-.572 4.38.005 1.683.196 3.176.572 4.49.376 1.312.905 2.45 1.593 3.409a9.267 9.267 0 002.425 2.367 10.3 10.3 0 003.077 1.387c1.122.302 2.303.45 3.547.45 1.244 0 2.425-.148 3.548-.45a10.305 10.305 0 003.076-1.387 9.358 9.358 0 002.43-2.367c.683-.958 1.213-2.097 1.589-3.41.376-1.313.566-2.806.571-4.49-.005-1.641-.196-3.108-.571-4.405-.376-1.297-.906-2.425-1.589-3.383a9.56 9.56 0 00-2.43-2.394 10.532 10.532 0 00-3.076-1.424A13.169 13.169 0 00159.496 0zm0 22.62c-1.022.005-1.948-.186-2.78-.567-.831-.381-1.546-.99-2.144-1.822-.598-.836-1.059-1.922-1.382-3.267-.323-1.344-.487-2.975-.492-4.892.01-2.473.296-4.48.857-6.02.567-1.546 1.356-2.68 2.372-3.4 1.017-.72 2.203-1.074 3.569-1.063 1.027-.006 1.959.19 2.796.587.836.397 1.556 1.012 2.155 1.853.603.842 1.064 1.928 1.387 3.256.328 1.33.492 2.923.492 4.787 0 1.917-.164 3.548-.492 4.893-.323 1.344-.784 2.43-1.387 3.266-.599.832-1.319 1.44-2.155 1.822-.837.381-1.769.572-2.796.566zm27.422-8.61l-3.749-.667a11.332 11.332 0 001.472-.133c.45-.068.826-.142 1.117-.211a7.18 7.18 0 00.492-.133 8.003 8.003 0 001.758-.714 5.533 5.533 0 001.446-1.155 5.128 5.128 0 00.979-1.689c.233-.656.355-1.435.36-2.319-.005-1.075-.185-1.985-.54-2.732a4.988 4.988 0 00-1.43-1.837 6.883 6.883 0 00-2.022-1.117 12.058 12.058 0 00-2.34-.578 22.22 22.22 0 00-2.367-.217 49.592 49.592 0 00-2.102-.031h-6.862v.286l.667.158c.016 0 .032 0 .047.006.016 0 .032.01.048.026.408.122.763.318 1.075.588.307.275.551.598.725.969.175.376.26.778.265 1.207V23.73h4.13V13.47h1.779l7.37 10.261h4.702l-7.021-9.721h.001zm-4.671-2.192h-2.16V2.097l2.16-.032a2.2 2.2 0 01.329.021c.211.016.487.069.826.154.333.084.694.227 1.069.429.376.2.736.481 1.07.841.339.36.614.826.826 1.393.211.566.323 1.265.328 2.086-.005.82-.085 1.514-.243 2.076-.154.566-.371 1.022-.636 1.376-.27.35-.566.62-.9.805l-.063.032a3.87 3.87 0 01-.948.381 5.52 5.52 0 01-.916.138 9.625 9.625 0 01-.741.021h-.001z" fill="#0B1759"/><path d="M2.097 23.731l1.938-4.193h11.087l2.001 4.193h4.575L10.706.477 0 23.73h2.097zM9.499 7.625L14.39 17.95H4.765L9.5 7.625zM67.988.477v15.757c-.006.895-.138 1.678-.398 2.34a5.14 5.14 0 01-1.027 1.684 6.02 6.02 0 01-1.424 1.133 7.96 7.96 0 01-1.578.678 8.926 8.926 0 01-1.493.333 7.73 7.73 0 01-1.165.09c-.01.006-.148 0-.413-.015a7.016 7.016 0 01-1.038-.18 5.849 5.849 0 01-1.344-.525c-.477-.249-.922-.603-1.345-1.064-.424-.455-.768-1.054-1.038-1.784-.265-.73-.403-1.626-.413-2.69V.477h-6.957v.286l.667.159c.015 0 .031 0 .047.005.016 0 .032.01.048.026.418.122.778.318 1.085.588a2.89 2.89 0 01.98 2.176v12.517c.005 1.048.143 1.97.402 2.758.265.79.62 1.473 1.07 2.04a6.817 6.817 0 001.503 1.423 8.656 8.656 0 001.726.922c.593.233 1.17.407 1.727.53a13.67 13.67 0 002.573.301c.26.005.397.005.402 0 1.26-.005 2.356-.127 3.299-.365.937-.238 1.742-.561 2.409-.964.667-.407 1.223-.858 1.662-1.36a6.853 6.853 0 001.054-1.546c.264-.53.455-1.044.582-1.53a8.857 8.857 0 00.302-2.209V.477h-1.906zm5.984 23.254l1.938-4.193h11.087l2.002 4.193h4.574L82.581.477 71.875 23.73h2.097zm7.402-16.106l4.892 10.325H76.64l4.734-10.325zM34.16 0c-1.244 0-2.425.159-3.548.477a10.41 10.41 0 00-3.076 1.43A9.682 9.682 0 0025.11 4.31c-.688.964-1.218 2.092-1.594 3.383-.376 1.292-.566 2.754-.572 4.38.006 1.683.196 3.176.572 4.49.376 1.312.906 2.45 1.594 3.409a9.27 9.27 0 002.425 2.367 10.312 10.312 0 003.076 1.387c1.123.302 2.304.45 3.548.45 1.244 0 2.425-.148 3.547-.45a10.306 10.306 0 003.209-1.477c.235.326.495.619.78.878.37.338.789.602 1.253.794.465.19.982.26 1.55.207 1.2-.11 2.815-1.014 3.57-2.818-.604.375-1.16.585-1.665.632a2.252 2.252 0 01-1.153-.213 5.254 5.254 0 01-1.116-.694 6.377 6.377 0 01-.967-.963l-.014-.017.06-.083c.683-.958 1.213-2.097 1.589-3.41.376-1.313.566-2.806.571-4.49-.005-1.641-.196-3.107-.571-4.405-.376-1.297-.906-2.425-1.589-3.383a9.57 9.57 0 00-2.43-2.393A10.532 10.532 0 0037.708.466 13.162 13.162 0 0034.16 0zm0 22.62c-1.022.005-1.949-.186-2.78-.567-.831-.381-1.546-.99-2.144-1.822-.599-.836-1.06-1.922-1.382-3.267-.323-1.344-.488-2.975-.493-4.892.01-2.473.297-4.48.858-6.02.566-1.546 1.355-2.68 2.372-3.4 1.017-.72 2.203-1.074 3.569-1.063 1.027-.006 1.959.19 2.796.587.836.397 1.556 1.012 2.154 1.853.604.842 1.064 1.928 1.388 3.256.328 1.33.492 2.923.492 4.787 0 1.917-.164 3.548-.492 4.893-.323 1.344-.784 2.43-1.388 3.266-.598.832-1.318 1.44-2.154 1.822-.837.381-1.77.572-2.796.566z" fill="#46CBE3"/></svg>